<?xml version="1.0" encoding="iso-8859-1"?>
<!-- Generator: Adobe Illustrator 19.0.0, SVG Export Plug-In . SVG Version: 6.00 Build 0)  -->
<svg version="1.1" id="Layer_1" xmlns="http://www.w3.org/2000/svg" xmlns:xlink="http://www.w3.org/1999/xlink" x="0px" y="0px"
	 viewBox="0 0 509.287 509.287" style="enable-background:new 0 0 509.287 509.287;" xml:space="preserve">
<circle style="fill:#F0582F;" cx="254.644" cy="254.644" r="254.644"/>
<rect x="46.114" y="46.114" style="fill:#886C60;" width="417.399" height="417.399"/>
<rect x="67.475" y="200.392" style="fill:#F1F3F7;" width="374.336" height="108.164"/>
<rect x="67.475" y="327.883" style="fill:#74594E;" width="374.336" height="113.928"/>
<g>
	<rect x="73.918" y="332.291" style="fill:#886C60;" width="177.674" height="105.113"/>
	<rect x="257.695" y="332.291" style="fill:#886C60;" width="177.674" height="105.113"/>
</g>
<path style="fill:#F8B517;" d="M207.174,297.367v-7.121l4.747-11.528h-1.356c0-0.678,0-1.356,0-1.695c-22.04,0-57.303,0-79.682,0
	c-7.799,9.833-7.799,22.04,0,31.873c22.04,0,57.303,0,79.682,0c0-1.356,0-2.374,0-3.73h-0.678L207.174,297.367z"/>
<path style="fill:#F5EA0A;" d="M213.277,280.752h63.407c0-1.356,0-2.373,0-3.73c-22.04,0-44.419,0-66.458,0
	c-7.799,9.833-7.799,22.04,0,31.873c22.04,0,44.419,0,66.458,0c0-1.356,0-2.374,0-3.73h-63.407
	C208.191,297.367,208.191,288.212,213.277,280.752z"/>
<path style="fill:#FFFFFC;" d="M213.277,280.752c-5.086,7.799-5.086,16.615,0,24.413c21.023,0,42.045,0,63.407,0
	c-6.442-7.46-6.442-16.954,0-24.413C255.322,280.752,234.299,280.752,213.277,280.752z"/>
<path style="fill:#73D658;" d="M201.409,267.189v-6.103l4.069-9.833h-1.017c0-0.678,0-1.017,0-1.695c-18.988,0-49.166,0-68.154,0
	c-6.442,8.477-6.442,18.649,0,27.126c18.988,0,49.166,0,68.154,0c0-1.017,0-2.034,0-3.052h-0.678L201.409,267.189z"/>
<path style="fill:#11A34D;" d="M206.495,252.948h54.252c0-1.017,0-2.034,0-3.052c-18.988,0-37.976,0-56.625,0
	c-6.442,8.477-6.442,18.649,0,27.126c18.988,0,37.976,0,56.625,0c0-1.017,0-2.034,0-3.052h-54.252
	C202.087,267.189,202.087,259.391,206.495,252.948z"/>
<path style="fill:#FFFFFC;" d="M206.495,252.948c-4.408,6.442-4.408,14.241,0,20.683c17.971,0,35.942,0,54.252,0
	c-5.425-6.442-5.425-14.58,0-20.683C242.437,252.948,224.466,252.948,206.495,252.948z"/>
<path style="fill:#0090FF;" d="M189.203,228.196c14.919,0,38.993,0,54.252,0c5.086,6.781,5.086,14.919,0,21.701
	c-14.919,0-38.993,0-54.252,0c0-0.339,2.374-5.764,2.374-10.85C191.915,233.621,189.203,228.196,189.203,228.196z"/>
<path style="fill:#007BCE;" d="M187.507,230.57h-43.062c0-0.678,0-1.695,0-2.374c14.919,0,30.177,0,45.097,0
	c5.086,6.781,5.086,14.919,0,21.701c-14.919,0-30.177,0-45.097,0c0-1.017,0-1.695,0-2.373h43.062
	C191.237,242.098,191.237,235.995,187.507,230.57z"/>
<path style="fill:#FFFFFF;" d="M187.507,230.57c3.391,5.086,3.391,11.528,0,16.615c-14.241,0-28.821,0-43.062,0
	c4.408-5.086,4.408-11.528,0-16.615C159.025,230.57,173.266,230.57,187.507,230.57z"/>
<rect x="67.475" y="67.475" style="fill:#F1F3F7;" width="374.336" height="113.928"/>
<rect x="77.989" y="82.039" transform="matrix(-0.9762 0.2169 -0.2169 -0.9762 202.3466 240.2005)" style="fill:#F0582F;" width="20.005" height="98.332"/>
<rect x="98.29" y="82.781" transform="matrix(-0.9762 0.2169 -0.2169 -0.9762 234.2513 238.1836)" style="fill:#FBD303;" width="11.529" height="98.332"/>
<rect x="112.228" y="101.034" transform="matrix(-0.9762 0.2169 -0.2169 -0.9762 266.7464 252.4729)" style="fill:#0090FF;" width="14.58" height="79.683"/>
<rect x="125.106" y="80.992" transform="matrix(-0.9762 0.2169 -0.2169 -0.9762 302.3054 227.475)" style="fill:#F8B517;" width="27.126" height="98.671"/>
<rect x="153.956" y="91.861" transform="matrix(-0.9762 0.2169 -0.2169 -0.9762 357.1857 232.6785)" style="fill:#73D658;" width="23.735" height="88.159"/>
<rect x="180.376" y="111.538" transform="matrix(-0.9762 0.2169 -0.2169 -0.9762 401.5537 248.1744)" style="fill:#E74938;" width="13.563" height="69.171"/>
<rect x="192.283" y="93.266" transform="matrix(-0.9762 0.2169 -0.2169 -0.9762 427.462 227.0964)" style="fill:#4B5AA7;" width="17.971" height="87.481"/>
<rect x="411.422" y="82.069" transform="matrix(0.9762 0.2169 -0.2169 0.9762 38.497 -88.2824)" style="fill:#F0BA7A;" width="20.005" height="98.332"/>
<rect x="399.344" y="83.211" transform="matrix(0.9762 0.2169 -0.2169 0.9762 38.3563 -84.7162)" style="fill:#4484C5;" width="11.529" height="98.332"/>
<rect x="382.556" y="101.108" transform="matrix(0.9762 0.2169 -0.2169 0.9762 39.8523 -81.2018)" style="fill:#73D658;" width="14.58" height="79.683"/>
<rect x="354.267" y="108.98" transform="matrix(0.9762 0.2169 -0.2169 0.9762 39.8195 -75.3304)" style="fill:#646B79;" width="17.632" height="69.51"/>
<rect x="371.786" y="111.816" transform="matrix(0.9762 0.2169 -0.2169 0.9762 40.7508 -78.1435)" style="fill:#EE4A68;" width="9.155" height="69.51"/>
<rect x="331.833" y="91.736" transform="matrix(0.9762 0.2169 -0.2169 0.9762 37.6405 -71.315)" style="fill:#F0BA7A;" width="23.735" height="88.159"/>
<rect x="315.526" y="111.633" transform="matrix(0.9762 0.2169 -0.2169 0.9762 39.3874 -66.4273)" style="fill:#3EB9E3;" width="13.563" height="69.171"/>
<rect x="298.863" y="93.004" transform="matrix(0.9762 0.2169 -0.2169 0.9762 36.9883 -63.5166)" style="fill:#886C60;" width="17.971" height="87.481"/>
<rect x="408.918" y="219.19" transform="matrix(0.9762 0.2169 -0.2169 0.9762 67.1201 -85.0005)" style="fill:#4B5AA7;" width="23.735" height="88.159"/>
<rect x="392.314" y="239.013" transform="matrix(0.9762 0.2169 -0.2169 0.9762 68.844 -80.0501)" style="fill:#FBD303;" width="13.563" height="69.171"/>
<rect x="375.948" y="220.457" transform="matrix(0.9762 0.2169 -0.2169 0.9762 66.4679 -77.2021)" style="fill:#E74938;" width="17.971" height="87.481"/>
<g>
	<circle style="fill:#74594E;" cx="221.754" cy="384.848" r="7.121"/>
	<circle style="fill:#74594E;" cx="287.534" cy="384.848" r="7.121"/>
</g>
<g>
</g>
<g>
</g>
<g>
</g>
<g>
</g>
<g>
</g>
<g>
</g>
<g>
</g>
<g>
</g>
<g>
</g>
<g>
</g>
<g>
</g>
<g>
</g>
<g>
</g>
<g>
</g>
<g>
</g>
</svg>
